<svg xmlns="http://www.w3.org/2000/svg" version="1.1" xmlns:xlink="http://www.w3.org/1999/xlink" xmlns:svgjs="http://svgjs.dev/svgjs" width="1000" height="623" viewBox="0 0 1000 623"><g transform="matrix(1,0,0,1,-0.6060606060606233,0.2951052631578932)"><svg viewBox="0 0 396 247" data-background-color="#ffffff" preserveAspectRatio="xMidYMid meet" height="623" width="1000" xmlns="http://www.w3.org/2000/svg" xmlns:xlink="http://www.w3.org/1999/xlink"><g id="tight-bounds" transform="matrix(1,0,0,1,0.2400000000000091,-0.09999999999999432)"><svg viewBox="0 0 395.52 247.2" height="247.2" width="395.52"><g><svg></svg></g><g><svg viewBox="0 0 395.52 247.2" height="247.2" width="395.52"><g><g><path xmlns="http://www.w3.org/2000/svg" d="M220.295-0.017h62.631v90.919h-62.631zM282.926 166.338c0 16.281-3.773 30.481-11.318 42.6-7.546 12.119-17.722 21.517-30.527 28.194-12.851 6.723-27.257 10.084-43.218 10.085-16.418 0-31.053-2.79-43.904-8.37-12.851-5.579-22.958-14.154-30.321-25.724-7.363-11.57-11.045-26.342-11.045-44.316h63.181c0 11.388 1.898 18.865 5.694 22.432 3.796 3.613 9.261 5.419 16.395 5.42 4.893 0 9.009-1.235 12.348-3.705 3.384-2.47 5.9-5.968 7.546-10.495 1.692-4.528 2.538-9.901 2.538-16.121l0-10.04 62.631 0z" fill="#1ebbd7" fill-rule="nonzero" stroke="none" stroke-width="1" stroke-linecap="butt" stroke-linejoin="miter" stroke-miterlimit="10" stroke-dasharray="" stroke-dashoffset="0" font-family="none" font-weight="none" font-size="none" text-anchor="none" style="mix-blend-mode: normal" data-fill-palette-color="tertiary"></path></g></g><g transform="matrix(1,0,0,1,0,101.38891149101926)"><svg viewBox="0 0 395.52 44.42217701796148" height="44.42217701796148" width="395.52"><g><svg viewBox="0 0 395.52 44.42217701796148" height="44.42217701796148" width="395.52"><g><svg viewBox="0 0 395.52 44.42217701796148" height="44.42217701796148" width="395.52"><g><svg viewBox="0 0 395.52 44.42217701796148" height="44.42217701796148" width="395.52"><g id="textblocktransform"><svg viewBox="0 0 395.52 44.42217701796148" height="44.42217701796148" width="395.52" id="textblock"><g><svg viewBox="0 0 395.52 44.42217701796148" height="44.42217701796148" width="395.52"><g transform="matrix(1,0,0,1,0,0)"><svg width="395.52" viewBox="0.7799999713897705 -37.52000045776367 338.4200134277344 38.01000213623047" height="44.42217701796148" data-palette-color="#1ebbd7"><path d="M16.48-11.3L16.48-35.55 25.61-35.55 25.61-11.3Q25.61-7.74 23.96-5.09 22.31-2.44 19.51-0.98 16.7 0.49 13.21 0.49L13.21 0.49Q9.62 0.49 6.81-0.73 4-1.95 2.39-4.48 0.78-7.01 0.78-10.94L0.78-10.94 9.99-10.94Q9.99-8.45 10.82-7.67 11.65-6.88 13.21-6.88L13.21-6.88Q14.28-6.88 15.01-7.42 15.75-7.96 16.11-8.95 16.48-9.94 16.48-11.3L16.48-11.3ZM29.37-12.96L29.37-13.43Q29.37-17.31 30.83-20.35 32.3-23.39 35.15-25.15 38.01-26.9 42.19-26.9L42.19-26.9Q46.41-26.9 49.28-25.15 52.15-23.39 53.6-20.35 55.05-17.31 55.05-13.43L55.05-13.43 55.05-12.96Q55.05-9.11 53.6-6.05 52.15-3 49.29-1.26 46.43 0.49 42.23 0.49L42.23 0.49Q38.03 0.49 35.17-1.26 32.3-3 30.83-6.05 29.37-9.11 29.37-12.96L29.37-12.96ZM38.18-13.43L38.18-12.96Q38.18-11.16 38.51-9.7 38.84-8.25 39.72-7.42 40.6-6.59 42.23-6.59L42.23-6.59Q43.85-6.59 44.72-7.42 45.6-8.25 45.93-9.7 46.26-11.16 46.26-12.96L46.26-12.96 46.26-13.43Q46.26-15.19 45.93-16.64 45.6-18.09 44.72-18.96 43.85-19.82 42.19-19.82L42.19-19.82Q40.57-19.82 39.71-18.96 38.84-18.09 38.51-16.64 38.18-15.19 38.18-13.43L38.18-13.43ZM58.54-37.5L67.33-37.5 67.33-6.81 66.4 0 58.54 0 58.54-37.5ZM83.32-13.53L83.32-13.01Q83.32-9.01 82.23-5.96 81.15-2.91 78.88-1.21 76.61 0.49 73.04 0.49L73.04 0.49Q69.84 0.49 67.87-1.4 65.89-3.3 64.79-6.46 63.69-9.62 63.15-13.4L63.15-13.4 63.15-13.11Q63.69-16.85 64.78-19.98 65.86-23.12 67.84-25.01 69.82-26.9 72.99-26.9L72.99-26.9Q76.58-26.9 78.86-25.15 81.15-23.39 82.23-20.37 83.32-17.36 83.32-13.53L83.32-13.53ZM74.53-13.01L74.53-13.53Q74.53-15.23 74.26-16.66 73.99-18.09 73.2-18.96 72.41-19.82 70.77-19.82L70.77-19.82Q69.55-19.82 68.72-19.45 67.89-19.07 67.4-18.3 66.91-17.53 66.73-16.37 66.55-15.21 66.62-13.67L66.62-13.67 66.62-12.84Q66.52-10.77 66.88-9.36 67.23-7.96 68.18-7.25 69.14-6.54 70.82-6.54L70.82-6.54Q72.5-6.54 73.29-7.34 74.07-8.13 74.3-9.59 74.53-11.06 74.53-13.01L74.53-13.01ZM104.78-35.55L104.78 0 95.62 0 95.62-35.55 104.78-35.55ZM115.28-35.55L115.28-28.15 85.34-28.15 85.34-35.55 115.28-35.55ZM125.16-19.36L125.16 0 116.37 0 116.37-26.42 124.57-26.42 125.16-19.36ZM132.78-26.61L132.63-18.02Q132.12-18.07 131.25-18.14 130.39-18.21 129.85-18.21L129.85-18.21Q127.99-18.21 126.83-17.74 125.67-17.26 125.16-16.26 124.65-15.26 124.67-13.62L124.67-13.62 123.13-14.94Q123.13-18.53 124.04-21.23 124.94-23.93 126.59-25.42 128.24-26.9 130.46-26.9L130.46-26.9Q131.07-26.9 131.69-26.84 132.31-26.78 132.78-26.61L132.78-26.61ZM149.11-7.1L149.11-17.36Q149.11-18.82 148.49-19.69 147.86-20.56 146.35-20.56L146.35-20.56Q145.54-20.56 144.99-20.31 144.45-20.07 144.16-19.53 143.88-18.99 143.88-18.09L143.88-18.09 135.09-18.09Q135.09-20.68 136.54-22.66 137.98-24.63 140.61-25.77 143.25-26.9 146.81-26.9L146.81-26.9Q149.99-26.9 152.5-25.84 155.02-24.78 156.48-22.64 157.95-20.51 157.95-17.31L157.95-17.31 157.95-6.88Q157.95-4.03 158.25-2.73 158.56-1.44 159.09-0.44L159.09-0.44 159.09 0 150.3 0Q149.69-1.29 149.4-3.17 149.11-5.05 149.11-7.1L149.11-7.1ZM150.16-16.24L150.21-11.45 146.81-11.45Q144.74-11.45 144.01-10.33 143.27-9.2 143.27-7.96L143.27-7.96Q143.27-7.06 143.95-6.51 144.62-5.96 145.62-5.96L145.62-5.96Q146.86-5.96 147.73-6.41 148.6-6.86 149.04-7.47 149.47-8.08 149.4-8.54L149.4-8.54 151.28-4.86Q150.79-3.91 150.2-2.97 149.6-2.03 148.72-1.25 147.84-0.46 146.57 0.01 145.3 0.49 143.49 0.49L143.49 0.49Q141.08 0.49 139.01-0.51 136.95-1.51 135.71-3.32 134.46-5.13 134.46-7.52L134.46-7.52Q134.46-11.6 137.46-13.92 140.47-16.24 146.89-16.24L146.89-16.24 150.16-16.24ZM173.52-6.59L173.52-6.59Q174.59-6.59 175.33-6.96 176.06-7.32 176.41-8.02 176.77-8.72 176.74-9.69L176.74-9.69 184.97-9.69Q185.02-6.59 183.54-4.31 182.07-2.03 179.51-0.77 176.96 0.49 173.72 0.49L173.72 0.49Q169.54 0.49 166.77-1.27 164-3.03 162.61-6.07 161.22-9.11 161.22-12.96L161.22-12.96 161.22-13.43Q161.22-17.29 162.59-20.34 163.97-23.39 166.75-25.15 169.52-26.9 173.67-26.9L173.67-26.9Q177.04-26.9 179.59-25.65 182.14-24.39 183.58-21.97 185.02-19.56 184.97-16.06L184.97-16.06 176.74-16.06Q176.77-17.09 176.44-17.94 176.11-18.8 175.38-19.31 174.64-19.82 173.45-19.82L173.45-19.82Q171.91-19.82 171.18-18.96 170.44-18.09 170.22-16.64 170-15.19 170-13.43L170-13.43 170-12.96Q170-11.16 170.21-9.72 170.42-8.28 171.18-7.43 171.93-6.59 173.52-6.59ZM197.1-37.52L197.1 0 188.29 0 188.29-37.52 197.1-37.52ZM214-26.42L202.64-12.7 196.52-6.64 192.63-12.21 197.74-19.07 203.47-26.42 214-26.42ZM204.52 0L197.93-11.77 204.45-16.33 214.58 0 204.52 0ZM228.96 0.49L228.96 0.49Q224.56 0.49 221.48-1.29 218.39-3.08 216.78-5.99 215.17-8.91 215.17-12.3L215.17-12.3 215.17-13.21Q215.17-16.99 216.58-20.1 218-23.22 220.85-25.06 223.71-26.9 228.03-26.9L228.03-26.9Q231.86-26.9 234.57-25.33 237.28-23.75 238.74-20.84 240.19-17.92 240.19-13.87L240.19-13.87 240.19-10.18 218.46-10.18 218.46-15.82 231.6-15.82 231.6-16.53Q231.62-17.68 231.21-18.41 230.79-19.14 229.97-19.48 229.15-19.82 227.96-19.82L227.96-19.82Q226.25-19.82 225.4-18.87 224.54-17.92 224.25-16.42 223.95-14.92 223.95-13.21L223.95-13.21 223.95-12.3Q223.95-10.55 224.61-9.27 225.27-7.98 226.53-7.3 227.79-6.62 229.55-6.62L229.55-6.62Q231.16-6.62 232.78-7.18 234.4-7.74 235.53-9.16L235.53-9.16 239.48-4.1Q238.26-2.39 235.54-0.95 232.82 0.49 228.96 0.49ZM252.15-19.36L252.15 0 243.36 0 243.36-26.42 251.56-26.42 252.15-19.36ZM259.77-26.61L259.62-18.02Q259.11-18.07 258.24-18.14 257.37-18.21 256.84-18.21L256.84-18.21Q254.98-18.21 253.82-17.74 252.66-17.26 252.15-16.26 251.64-15.26 251.66-13.62L251.66-13.62 250.12-14.94Q250.12-18.53 251.03-21.23 251.93-23.93 253.58-25.42 255.23-26.9 257.45-26.9L257.45-26.9Q258.06-26.9 258.68-26.84 259.3-26.78 259.77-26.61L259.77-26.61ZM277.2-11.57L268.53-11.57 268.53-18.97 277.2-18.97Q278.86-18.97 279.88-19.51 280.91-20.04 281.4-20.98 281.88-21.92 281.88-23.14L281.88-23.14Q281.88-24.46 281.4-25.61 280.91-26.76 279.88-27.45 278.86-28.15 277.2-28.15L277.2-28.15 271.95-28.15 271.95 0 262.77 0 262.77-35.55 277.2-35.55Q281.52-35.55 284.66-33.94 287.79-32.32 289.49-29.54 291.19-26.76 291.19-23.19L291.19-23.19Q291.19-19.73 289.49-17.11 287.79-14.5 284.66-13.04 281.52-11.57 277.2-11.57L277.2-11.57ZM304.05-19.36L304.05 0 295.26 0 295.26-26.42 303.46-26.42 304.05-19.36ZM311.67-26.61L311.52-18.02Q311.01-18.07 310.14-18.14 309.27-18.21 308.74-18.21L308.74-18.21Q306.88-18.21 305.72-17.74 304.56-17.26 304.05-16.26 303.54-15.26 303.56-13.62L303.56-13.62 302.02-14.94Q302.02-18.53 302.93-21.23 303.83-23.93 305.48-25.42 307.13-26.9 309.35-26.9L309.35-26.9Q309.96-26.9 310.58-26.84 311.2-26.78 311.67-26.61L311.67-26.61ZM313.52-12.96L313.52-13.43Q313.52-17.31 314.98-20.35 316.45-23.39 319.31-25.15 322.16-26.9 326.34-26.9L326.34-26.9Q330.56-26.9 333.43-25.15 336.3-23.39 337.75-20.35 339.2-17.31 339.2-13.43L339.2-13.43 339.2-12.96Q339.2-9.11 337.75-6.05 336.3-3 333.44-1.26 330.59 0.49 326.39 0.49L326.39 0.49Q322.19 0.49 319.32-1.26 316.45-3 314.98-6.05 313.52-9.11 313.52-12.96L313.52-12.96ZM322.33-13.43L322.33-12.96Q322.33-11.16 322.66-9.7 322.99-8.25 323.87-7.42 324.75-6.59 326.39-6.59L326.39-6.59Q328-6.59 328.88-7.42 329.76-8.25 330.08-9.7 330.41-11.16 330.41-12.96L330.41-12.96 330.41-13.43Q330.41-15.19 330.08-16.64 329.76-18.09 328.88-18.96 328-19.82 326.34-19.82L326.34-19.82Q324.73-19.82 323.86-18.96 322.99-18.09 322.66-16.64 322.33-15.19 322.33-13.43L322.33-13.43Z" opacity="1" transform="matrix(1,0,0,1,0,0)" fill="#1ebbd7" class="undefined-text-0" data-fill-palette-color="primary" id="text-0"></path></svg></g></svg></g></svg></g></svg></g><g></g></svg></g></svg></g></svg></g></svg></g><defs></defs></svg><rect width="395.52" height="247.2" fill="none" stroke="none" visibility="hidden"></rect></g></svg></g></svg>